<?xml version="1.0" encoding="UTF-8" standalone="no"?>
<svg
   viewBox="0 0 512 512"
   version="1.1"
   id="svg4"
   sodipodi:docname="clock-melting-color.svg"
   inkscape:version="1.2.2 (b0a8486541, 2022-12-01)"
   inkscape:export-filename="clock-melting.png"
   inkscape:export-xdpi="24"
   inkscape:export-ydpi="24"
   xmlns:inkscape="http://www.inkscape.org/namespaces/inkscape"
   xmlns:sodipodi="http://sodipodi.sourceforge.net/DTD/sodipodi-0.dtd"
   xmlns="http://www.w3.org/2000/svg"
   xmlns:svg="http://www.w3.org/2000/svg">
  <defs
     id="defs8" />
  <sodipodi:namedview
     id="namedview6"
     pagecolor="#ffffff"
     bordercolor="#000000"
     borderopacity="0.25"
     inkscape:showpageshadow="2"
     inkscape:pageopacity="0.0"
     inkscape:pagecheckerboard="0"
     inkscape:deskcolor="#d1d1d1"
     showgrid="false"
     inkscape:zoom="1.1711456"
     inkscape:cx="308.67212"
     inkscape:cy="267.68661"
     inkscape:window-width="1920"
     inkscape:window-height="1019"
     inkscape:window-x="0"
     inkscape:window-y="30"
     inkscape:window-maximized="1"
     inkscape:current-layer="svg4" />
  <rect
     style="fill:#000000;fill-opacity:0;stroke:none;stroke-width:4.64966;stroke-linecap:round;stroke-linejoin:round;stroke-dasharray:none;stroke-dashoffset:18;stroke-opacity:1"
     id="rect8428"
     width="574.362"
     height="576.55511"
     x="-35.657497"
     y="-30.174679" />
  <path
     id="path6607"
     style="fill:#ffffff;fill-opacity:1;stroke-width:0.766585"
     d="m 266.20257,5.5250017 c -19.8793,0.4149713 -39.84492,4.472761 -57.81203,13.1389333 -17.79127,8.590303 -33.32531,21.308371 -46.63104,35.809678 -8.2447,8.885548 -16.39805,17.995401 -26.15799,25.271651 -9.34976,7.152156 -19.69448,12.833426 -29.9867,18.486047 -6.422556,3.493829 -12.680097,7.352519 -18.306241,12.043719 -11.643693,9.80881 -21.27513,21.92265 -28.586353,35.25753 -8.705906,16.18536 -13.560634,34.22153 -15.676269,52.41406 -2.232181,18.16164 -2.479424,36.52779 -1.472999,54.78431 1.813697,27.59409 8.581289,54.95261 20.667394,79.86706 3.629012,7.582 7.718842,14.942 12.152696,22.08227 -7.308848,4.00662 -13.698548,9.86788 -17.799496,17.16925 -4.545138,7.91687 -6.609638,17.27075 -5.628636,26.35959 -8.398231,4.10241 -15.592402,10.81298 -19.828274,19.18714 -5.711766,10.95251 -6.524262,24.34409 -2.112328,35.8896 3.926547,10.60401 12.049697,19.58989 22.249369,24.48883 9.449507,4.76576 20.138987,6.50363 30.64056,6.61306 10.321617,0.14772 20.875067,-1.62128 30.057537,-6.51317 6.76161,-3.61823 12.5816,-9.00427 16.64071,-15.51643 4.90827,8.34953 12.80287,14.6765 21.60822,18.54598 10.02114,4.48093 20.96353,6.5233 31.86291,7.30143 12.42702,0.86159 24.88416,0.11869 37.31538,-0.23249 11.99877,-0.40238 24.01751,-0.90066 35.98585,-1.24414 4.12965,-0.0802 8.26979,-0.30853 12.39608,-0.0472 0.77136,0.0451 1.51535,0.27109 2.08871,0.80825 3.3265,2.35837 6.71267,4.66235 10.38729,6.44958 16.20758,8.20757 35.61946,9.57473 52.91898,4.15201 6.32676,-1.94089 12.27951,-4.87139 18.19363,-7.79908 4.65151,-2.22947 9.66074,-4.04596 14.88438,-4.02487 6.03064,-0.20824 12.08502,-0.36144 18.05195,-1.34041 9.27315,-1.43165 18.46361,-4.54272 26.02904,-10.21473 8.41068,-6.24071 14.69267,-15.43633 16.96946,-25.7003 1.16373,-4.96023 1.48223,-10.11321 0.98441,-15.18224 12.98464,2.33043 26.93616,-1.11525 37.20095,-9.4428 8.0553,-6.45974 13.73882,-15.51758 17.09659,-25.20991 4.1987,-11.90435 5.4866,-24.58262 6.07908,-37.11921 0.6054,-13.73601 0.088,-27.49271 0.56486,-41.23126 0.22035,-4.80649 1.02521,-9.58377 2.41565,-14.19055 5.22441,-19.61617 7.9162,-39.85361 8.74899,-60.11871 0.8704,-20.56289 -1.75081,-41.17923 -6.80376,-61.09949 -7.6877,-30.97414 -20.77145,-60.75463 -39.52941,-86.643583 C 436.34826,74.226679 413.7395,53.147388 387.70774,37.649457 357.62682,19.644152 323.29355,8.8993661 288.35568,6.2097372 280.98771,5.6358525 273.59217,5.4070527 266.20257,5.5250017 Z" />
  <path
     id="path6607-6"
     style="fill:#7c3c84;fill-opacity:1;stroke:none;stroke-width:0.766585;stroke-opacity:1"
     d="m 270.69241,38.953543 c -39.31969,-0.09494 -63.50146,14.748684 -87.66433,41.797937 -23.2037,25.9755 -39.21275,34.81713 -64.74657,48.68162 -11.22247,6.09363 -21.10896,17.06093 -27.783562,27.90888 -13.632236,22.15591 -16.055015,50.20707 -16.052238,77.87642 -0.0048,48.10266 14.354153,85.44184 41.56183,120.795 7.03641,9.14307 6.57254,16.12187 -2.92239,20.4876 -10.21191,4.69544 -28.608852,4.32221 -28.864249,17.15834 -0.242246,12.17523 21.458589,15.54858 39.594799,16.45909 21.4853,1.07864 29.02314,-0.21588 48.57083,0.1235 9.00349,0.15632 26.7848,-0.17188 27.20053,8.56192 0.33834,7.10807 -8.19443,9.74603 -17.67962,10.94669 -11.69911,1.48093 -24.93794,2.15802 -25.18992,12.82653 -0.18377,7.78075 17.1606,12.92259 37.9656,12.59224 27.3167,-0.43378 59.60296,-2.19291 67.9977,-2.17408 24.7056,0.0554 23.32232,7.57203 35.60444,12.40879 10.68253,4.20686 22.31548,2.70208 31.43609,-1.8199 11.08707,-5.49701 21.05859,-10.65134 36.59794,-10.84498 11.84891,-0.14765 30.03263,-1.00705 28.66264,-15.88878 -0.60476,-6.56909 -6.77976,-10.67847 -13.72378,-13.09534 -9.30627,-3.23905 -18.12657,0.77127 -26.1816,-5.87384 -1.3736,-1.13316 -2.44655,-2.33596 -2.77709,-4.12112 -0.30053,-1.6231 -1.06986,-3.06645 -0.75012,-4.79316 0.49993,-2.69978 2.06863,-5.77575 5.21634,-7.26691 19.28025,-9.13362 33.61085,-16.0252 47.25947,-27.07158 4.58538,-3.71111 8.76275,-9.07186 12.92644,-10.01494 6.26259,-1.4185 3.73676,10.33895 4.19196,17.71594 0.58421,9.46785 6.75177,18.87917 15.22765,18.76395 12.7876,-0.17384 18.7832,-15.04112 19.09631,-48.51452 0.0727,-7.78349 0.17997,-16.46379 0.0418,-25.46236 -0.0988,-6.43097 0.9045,-19.2334 2.63722,-24.88116 5.79947,-18.90317 9.57662,-47.58449 8.89793,-69.22369 -0.83171,-26.51854 -9.62526,-58.89606 -21.93151,-84.21704 C 435.0782,128.14746 422.04502,109.82735 406.49711,94.349931 390.95069,78.873999 372.89023,66.239947 352.79712,56.965543 328.18284,45.604292 300.51976,39.02556 270.69241,38.953543 Z m 11.37714,36.725081 c 26.31188,1.032745 50.9155,10.52652 72.17515,23.651534 22.05261,13.614572 40.54582,32.465252 53.75447,54.777032 14.06823,23.76378 23.9318,50.89459 25.35338,80.47734 1.27042,26.43675 -3.46404,45.82374 -10.33642,63.88384 -3.61855,9.50926 -9.07374,18.67648 -17.29094,28.28666 -29.24479,34.20236 -73.2417,55.59618 -121.77034,55.59618 -45.91577,0 -100.56087,-7.09101 -129.65479,-38.15085 -26.70482,-28.50931 -43.05662,-66.83661 -43.05662,-108.98196 0,-21.23205 1.06749,-43.07138 11.6841,-60.02062 6.07111,-9.69244 16.92062,-17.65936 28.09051,-24.596 27.13756,-16.85275 42.77045,-30.11936 67.89599,-54.79338 14.15799,-13.903566 31.49684,-18.916711 51.77837,-20.040778 3.82374,-0.211925 7.61831,-0.236533 11.37714,-0.08899 z m -24.32718,46.718226 c -10.19551,0 -18.39706,8.20157 -18.39706,18.39705 v 104.25601 c 0,6.13261 3.06438,11.88158 8.20049,15.33117 l 73.59365,49.06122 c 8.43237,5.67271 19.85508,3.3726 25.52775,-5.13642 5.6727,-8.50904 3.3726,-19.85503 -5.13643,-25.52775 L 276.13942,235.23838 V 140.7939 c 0,-10.19548 -8.20154,-18.39705 -18.39705,-18.39705 z M 80.637391,425.58582 c -11.548608,0 -21.298976,2.81144 -20.910774,12.66489 0.275376,6.9897 6.150921,12.12114 20.910774,12.6667 14.04457,0.51911 21.591889,-3.705 20.910779,-12.6667 -0.79998,-10.52557 -9.362171,-12.66489 -20.910779,-12.66489 z" />
  <!--! Font Awesome Pro 6.4.0 by @fontawesome - https://fontawesome.com License - https://fontawesome.com/license (Commercial License) Copyright 2023 Fonticons, Inc. -->
</svg>
