<?xml version="1.0" encoding="UTF-8" standalone="no"?>
<svg
   viewBox="0 0 512 512"
   version="1.1"
   id="svg4"
   sodipodi:docname="clock-melting.svg"
   inkscape:version="1.2.2 (b0a8486541, 2022-12-01)"
   inkscape:export-filename="clock-melting.png"
   inkscape:export-xdpi="24"
   inkscape:export-ydpi="24"
   xmlns:inkscape="http://www.inkscape.org/namespaces/inkscape"
   xmlns:sodipodi="http://sodipodi.sourceforge.net/DTD/sodipodi-0.dtd"
   xmlns="http://www.w3.org/2000/svg"
   xmlns:svg="http://www.w3.org/2000/svg">
  <defs
     id="defs8" />
  <sodipodi:namedview
     id="namedview6"
     pagecolor="#ffffff"
     bordercolor="#000000"
     borderopacity="0.25"
     inkscape:showpageshadow="2"
     inkscape:pageopacity="0.0"
     inkscape:pagecheckerboard="0"
     inkscape:deskcolor="#d1d1d1"
     showgrid="false"
     inkscape:zoom="1.1711456"
     inkscape:cx="292.02176"
     inkscape:cy="239.50907"
     inkscape:window-width="1920"
     inkscape:window-height="1019"
     inkscape:window-x="0"
     inkscape:window-y="30"
     inkscape:window-maximized="1"
     inkscape:current-layer="svg4" />
  <!--! Font Awesome Pro 6.4.0 by @fontawesome - https://fontawesome.com License - https://fontawesome.com/license (Commercial License) Copyright 2023 Fonticons, Inc. -->
  <path
     style="stroke-width:0.824345"
     d="m 258.21092,112.17096 c -10.96372,0 -19.78386,8.82017 -19.78386,19.78386 v 112.11133 c 0,6.5947 3.29648,12.77739 8.81958,16.4869 l 79.13753,52.75766 c 9.06773,6.10014 21.35109,3.62753 27.45117,-5.52263 6.10013,-9.15017 3.62755,-21.35103 -5.52262,-27.45118 L 277.99478,233.51503 V 131.95482 c 0,-10.96369 -8.82014,-19.78386 -19.78386,-19.78386 z"
     id="path6607" />
  <path
     style="stroke-width:0.824345"
     d="m 272.13711,22.44159 c -42.28233,-0.102089 -68.28576,15.859733 -94.26925,44.947082 -24.95204,27.932686 -42.16838,37.440328 -69.62611,52.349478 -12.068055,6.55278 -22.699616,18.34698 -29.877133,30.0123 -14.659392,23.8253 -17.263203,53.99044 -17.260217,83.74461 -0.0052,51.72707 15.43402,91.87889 44.69172,129.89583 7.56659,9.83196 7.0691,17.3356 -3.14125,22.03027 -10.981345,5.04924 -30.764161,4.64767 -31.038801,18.45097 -0.2605,13.09261 23.075457,16.72027 42.578181,17.69938 23.10416,1.15992 31.20974,-0.23207 52.2303,0.13288 9.68189,0.16809 28.8021,-0.18404 29.24915,9.20783 0.36383,7.64365 -8.81165,10.48078 -19.01153,11.77191 -12.58061,1.59251 -26.81688,2.31966 -27.08785,13.79202 -0.19762,8.36701 18.45329,13.89605 40.82589,13.54081 29.37495,-0.46647 64.09351,-2.35803 73.12077,-2.33778 26.56711,0.0596 25.07918,8.14237 38.28673,13.34357 11.48744,4.52384 23.99852,2.90696 33.80634,-1.95575 11.92246,-5.91119 22.64367,-11.45365 39.35388,-11.66188 12.74169,-0.15877 32.29611,-1.08387 30.82288,-17.0869 -0.65033,-7.06406 -7.29021,-11.48372 -14.75744,-14.08269 -10.00747,-3.4831 -19.49304,0.83007 -28.155,-6.31573 -1.4771,-1.21854 -2.6301,-2.51089 -2.98554,-4.43056 -0.32318,-1.74539 -1.15146,-3.29832 -0.80763,-5.15513 0.5376,-2.90321 2.22492,-6.2112 5.60981,-7.81472 20.73297,-9.82182 36.14277,-17.23295 50.81979,-29.11165 4.93087,-3.99074 9.42379,-9.7548 13.9012,-10.76894 6.73446,-1.52538 4.01743,11.11863 4.50693,19.05146 0.62823,10.18123 7.26055,20.30146 16.37507,20.17756 13.75112,-0.18693 20.19849,-16.17489 20.53519,-52.17044 0.0782,-8.36995 0.1943,-17.704 0.0457,-27.3806 -0.1062,-6.91552 0.97277,-20.68235 2.83605,-26.75565 6.23644,-20.32748 10.29891,-51.16948 9.56908,-74.43914 -0.89438,-28.51665 -10.35183,-63.33386 -23.58533,-90.56271 C 448.90787,118.35643 434.89316,98.655477 418.17375,82.011868 401.45595,65.369862 382.03399,51.784612 360.42691,41.811404 333.958,29.594111 304.21188,22.519033 272.13711,22.44159 Z m 0,39.588487 c 32.89488,-1.823139 63.72046,9.207796 89.8479,25.338026 23.71423,14.640397 43.59961,34.910657 57.8035,58.903587 15.12824,25.55432 25.73604,54.72858 27.26474,86.54031 1.36614,28.4287 -3.72652,49.27723 -11.11672,68.69812 -3.89119,10.22576 -9.75546,20.08414 -18.59181,30.41842 -31.44832,36.77942 -78.76123,59.78343 -130.94638,59.78343 -49.37542,0 -108.1373,-7.62507 -139.42338,-41.0252 C 118.258,320.02936 100.6742,278.81595 100.6742,233.49506 c 0,-22.83184 1.14662,-46.31798 12.56316,-64.54431 6.52856,-10.42274 18.19703,-18.98862 30.20854,-26.44791 29.18232,-18.12257 45.99313,-32.38914 73.01182,-58.922289 15.22476,-14.951166 33.8697,-20.341711 55.67939,-21.550474 z"
     id="path2"
     sodipodi:nodetypes="sssscssssssssssssssssssssssssssssssssssssssssssss" />
  <path
     id="path6661"
     style="stroke-width:5;stroke-linecap:round;stroke-linejoin:round;stroke-dashoffset:18"
     d="m 90.24821,451.82513 c 0.732436,9.63694 -7.383368,14.17836 -22.486162,13.62013 -15.871973,-0.58666 -22.190036,-6.10377 -22.486162,-13.62013 -0.417452,-10.59588 10.067394,-13.62014 22.486162,-13.62014 12.418768,0 21.625912,2.30149 22.486162,13.62014 z"
     sodipodi:nodetypes="sssss" />
</svg>
